<?xml version="1.0" encoding="utf-8"?>
<!-- Generator: Adobe Illustrator 26.0.0, SVG Export Plug-In . SVG Version: 6.00 Build 0)  -->
<svg version="1.1" id="Layer_1" xmlns="http://www.w3.org/2000/svg" xmlns:xlink="http://www.w3.org/1999/xlink" x="0px" y="0px"
	 viewBox="0 0 1245 132" style="enable-background:new 0 0 1245 132;" xml:space="preserve">
<style type="text/css">
	.st0{fill:#031339;}
</style>
<g>
	<path class="st0" d="M91.5,0h15.8c2.2,0,3.3,1.3,3.2,3.5L96.2,128.9c-0.2,2.1-1.3,3.1-3.5,3.1H76.4c-2,0-3.2-1-3.7-3L55.5,54.5
		L38,129.2c-0.5,1.8-1.7,2.8-3.7,2.8H17.8c-2.2,0-3.3-1-3.5-3.1L0.7,3.5C0.5,1.3,1.7,0,3.8,0h15.8c2,0,3.3,1.2,3.5,3.1l6.5,77.2h0.8
		L46.8,3c0.5-2,1.7-3,3.7-3h10c2,0,3.2,1,3.7,3l16.3,77.4h0.8L88,3.1C88.2,1.2,89.5,0,91.5,0z M195.5,132h-17.6
		c-1.5,0-2.3-0.8-2.7-2.3l-4.7-24.1H141l-4.5,24.1c-0.3,1.5-1.2,2.3-2.7,2.3h-17.8c-1.8,0-2.7-1-2.2-2.8L141.5,2.3
		c0.3-1.7,1.3-2.3,2.8-2.3h23.1c1.5,0,2.5,0.7,2.8,2.3l27.6,126.9C198.1,131,197.5,132,195.5,132z M166.4,86.5l-10.6-57.6
		l-10.6,57.6H166.4z M233.3,0h18.6c15.6,0,23.9,8.2,23.9,23.8v17.5c0,1.7-0.8,2.6-2.7,2.6h-17.3c-1.7,0-2.7-1-2.7-2.6V28.4
		c0-4.3-2.2-6.6-6.6-6.6h-8c-4.2,0-6.6,2.3-6.6,6.6v22.8L271.5,64c2.8,1.2,4.3,3,4.3,6.1v38.1c0,15.5-8.3,23.8-23.9,23.8h-18.6
		c-15.5,0-23.9-8.2-23.9-23.8V90.9c0-1.8,1-2.6,2.7-2.6h17.3c1.8,0,2.7,0.8,2.7,2.6v12.7c0,4.5,2.5,6.6,6.6,6.6h8
		c4.3,0,6.6-2.1,6.6-6.6V81.7l-39.4-12.9c-3-1-4.5-3-4.5-6.1V23.8C209.4,8.2,217.9,0,233.3,0z M318,0h18.6
		c15.6,0,23.9,8.2,23.9,23.8v17.5c0,1.7-0.8,2.6-2.7,2.6h-17.3c-1.7,0-2.7-1-2.7-2.6V28.4c0-4.3-2.2-6.6-6.6-6.6h-8
		c-4.2,0-6.6,2.3-6.6,6.6v22.8L356.2,64c2.8,1.2,4.3,3,4.3,6.1v38.1c0,15.5-8.3,23.8-23.9,23.8H318c-15.5,0-23.9-8.2-23.9-23.8V90.9
		c0-1.8,1-2.6,2.7-2.6H314c1.8,0,2.7,0.8,2.7,2.6v12.7c0,4.5,2.5,6.6,6.6,6.6h8c4.3,0,6.6-2.1,6.6-6.6V81.7l-39.4-12.9
		c-3-1-4.5-3-4.5-6.1V23.8C294.1,8.2,302.6,0,318,0z M378.8,129.4V2.6c0-1.7,1-2.6,2.7-2.6h39.9c15.6,0,23.9,8.2,23.9,23.8V64
		c0,15.3-8.3,23.8-23.9,23.8h-19.9v41.6c0,1.6-0.8,2.6-2.7,2.6h-17.3C379.8,132,378.8,131,378.8,129.4z M401.4,66H416
		c4.5,0,6.6-2.5,6.6-6.6v-31c0-4.3-2.2-6.6-6.6-6.6h-14.6V66z M576.2,0h21.9c2.2,0,3.3,1.2,3.3,3.3v125.4c0,2.1-1.2,3.3-3.3,3.3
		h-15.5c-2.2,0-3.3-1.2-3.3-3.3V54.5h-1.2L561.7,129c-0.5,2-1.7,3-3.7,3H550c-2,0-3.2-1-3.7-3l-16.4-74.6h-1.2v74.2
		c0,2.1-1.2,3.3-3.3,3.3h-15.3c-2.2,0-3.3-1.2-3.3-3.3V3.3c0-2.1,1.2-3.3,3.3-3.3H532c2,0,3.2,1,3.7,3l18.4,82.2L572.5,3
		C573,1,574.2,0,576.2,0z M667.6,0h15.3c1.8,0,3.3,1.5,3.3,3.3v104.9c0,15.5-8.3,23.8-23.9,23.8h-18.6c-15.6,0-23.9-8.2-23.9-23.8
		V3.3c0-1.8,1.5-3.3,3.3-3.3H639c1.8,0,3.3,1.5,3.3,3.3v100.3c0,4.5,2.3,6.6,6.6,6.6h8.6c4.3,0,6.6-2.1,6.6-6.6V3.3
		C664.2,1.5,665.7,0,667.6,0z M727,110.2h39.5c1.8,0,2.7,1,2.7,2.6v16.5c0,1.8-0.8,2.6-2.7,2.6h-59.5c-1.7,0-2.7-0.8-2.7-2.6V2.6
		c0-1.7,1-2.6,2.7-2.6h17.3c1.8,0,2.7,1,2.7,2.6V110.2z M770.3,0h61.1c1.8,0,2.7,1,2.7,2.6v16.5c0,1.7-0.8,2.6-2.7,2.6h-19.3v107.6
		c0,1.8-0.8,2.6-2.7,2.6h-17.3c-1.7,0-2.7-0.8-2.7-2.6V21.8h-19.3c-1.7,0-2.7-1-2.7-2.6V2.6C767.7,1,768.7,0,770.3,0z M851.7,0H869
		c1.7,0,2.7,1,2.7,2.6v126.7c0,1.6-1,2.6-2.7,2.6h-17.3c-1.8,0-2.7-1-2.7-2.6V2.6C849.1,1,849.9,0,851.7,0z M956.6,23.8v30.4
		c0,6.1-4.5,10.7-10.5,11.7v0.3c6,1,10.5,5.6,10.5,11.7v30.4c0,15.5-8.5,23.8-24.1,23.8h-39.9c-1.7,0-2.7-1-2.7-2.6V2.6
		c0-1.8,1-2.6,2.7-2.6h39.9C948.1,0,956.6,8.2,956.6,23.8z M934.5,48.7V28.4c0-4.3-2.2-6.6-6.6-6.6h-15.1v33.3h15.1
		C932.2,55.1,934.5,52.8,934.5,48.7z M934.5,103.6V83.5c0-4.3-2.2-6.6-6.6-6.6h-15.1v33.3h15.1C932.2,110.2,934.5,108.1,934.5,103.6
		z M1041.2,2.6v16.5c0,1.7-0.7,2.8-2.7,2.8H997v33h31.7c1.7,0,2.7,1,2.7,2.8v16.3c0,1.8-1,2.8-2.7,2.8H997v33.3h41.5
		c2,0,2.7,0.8,2.7,2.6v16.5c0,1.6-0.7,2.6-2.7,2.6h-61.1c-1.5,0-2.5-1-2.5-2.6V2.6c0-1.7,1-2.6,2.5-2.6h61.1
		C1040.5,0,1041.2,1,1041.2,2.6z M1134.5,132h-17.6c-1.5,0-2.3-0.8-2.7-2.3l-4.7-24.1H1080l-4.5,24.1c-0.3,1.5-1.2,2.3-2.7,2.3
		h-17.8c-1.8,0-2.7-1-2.2-2.8l27.6-126.9c0.3-1.7,1.3-2.3,2.8-2.3h23.1c1.5,0,2.5,0.7,2.8,2.3l27.6,126.9
		C1137.2,131,1136.5,132,1134.5,132z M1105.4,86.5l-10.6-57.6l-10.6,57.6H1105.4z M1219.6,0h21.9c2.2,0,3.3,1.2,3.3,3.3v125.4
		c0,2.1-1.2,3.3-3.3,3.3h-15.5c-2.2,0-3.3-1.2-3.3-3.3V54.5h-1.2l-16.4,74.6c-0.5,2-1.7,3-3.7,3h-8.1c-2,0-3.2-1-3.7-3l-16.4-74.6
		h-1.2v74.2c0,2.1-1.2,3.3-3.3,3.3h-15.3c-2.2,0-3.3-1.2-3.3-3.3V3.3c0-2.1,1.2-3.3,3.3-3.3h21.9c2,0,3.2,1,3.7,3l18.4,82.2L1216,3
		C1216.5,1,1217.6,0,1219.6,0z"/>
</g>
</svg>
